<?xml version="1.0" encoding="utf-8"?>
<!-- Generator: Adobe Illustrator 27.0.0, SVG Export Plug-In . SVG Version: 6.00 Build 0)  -->
<svg version="1.1"
	 id="svg2" xmlns:rdf="http://www.w3.org/1999/02/22-rdf-syntax-ns#" xmlns:cc="http://creativecommons.org/ns#" xmlns:dc="http://purl.org/dc/elements/1.1/"
	 xmlns="http://www.w3.org/2000/svg" xmlns:xlink="http://www.w3.org/1999/xlink" x="0px" y="0px" viewBox="0 0 1000 379.3"
	 style="enable-background:new 0 0 1000 379.3;" xml:space="preserve">
<style type="text/css">
	.st0{fill:#008080;}
	.st1{fill:#FFFFFF;}
	.st2{fill:#FFFFFF;stroke:#FFFFFF;stroke-width:0.6607;stroke-miterlimit:3.1616;}
	.st3{fill:#37C871;stroke:#FFFFFF;stroke-width:0.6607;stroke-miterlimit:3.1616;}
</style>
<g id="text3038-7" transform="matrix(0.99452608,0,0,0.99452608,-8.982512,-19.7611)">
	<path id="path3950" d="M836.6,264.8l4.3-0.7v-29.8l-3.7-0.4v-2.5h6c0.4,0,0.8,0,1.5,0c0.6,0,1.3-0.1,2-0.1c0.7,0,1.5-0.1,2.3-0.1
		c0.8,0,1.6,0,2.3,0c1.7,0,3.3,0.2,4.8,0.5c1.5,0.3,2.7,0.9,3.7,1.7c1,0.8,1.9,1.9,2.4,3.2c0.6,1.3,0.9,3,0.9,5.1
		c0,1.2-0.2,2.4-0.5,3.4c-0.3,1.1-0.8,2-1.4,2.9c-0.6,0.9-1.3,1.6-2.2,2.3c-0.8,0.7-1.7,1.2-2.7,1.7c-1,0.4-2,0.8-3.1,1
		c-1.1,0.2-2.2,0.3-3.3,0.3c-1.1,0-2.1,0-2.8,0c-0.7,0-1.3,0.1-1.8,0.1v10.8l6.1,0.7v1.9h-14.8L836.6,264.8 M845.3,250.6
		c0.9,0.1,1.7,0.2,2.4,0.2c0.7,0,1.5,0,2.1,0c0.7,0,1.4,0,2.2-0.1c0.7-0.1,1.4-0.3,2-0.5c0.7-0.3,1.2-0.6,1.8-1c0.6-0.4,1-1,1.4-1.7
		c0.4-0.7,0.7-1.5,1-2.4c0.2-1,0.3-2.1,0.3-3.4c0-2.8-0.8-4.8-2.4-6.2c-1.6-1.3-3.8-2-6.7-1.9c-0.7,0-1.5,0.1-2.1,0.1
		c-0.7,0-1.3,0.2-2,0.3L845.3,250.6"/>
	<path id="path3952" d="M866.6,264.8l3.7-0.5v-18.5l-3.2-1.8v-1.4l6-1.8l1.1,0.5v3.5c0.3-0.4,0.7-0.9,1.3-1.3c0.6-0.5,1.2-0.9,2-1.3
		c0.7-0.4,1.5-0.7,2.3-1c0.8-0.3,1.5-0.4,2.2-0.4c0.5,0,0.9,0,1.3,0c0.4,0,0.7,0.1,0.9,0.1v4.7c-0.2-0.1-0.5-0.2-0.7-0.3
		c-0.3-0.1-0.5-0.2-0.9-0.2c-0.3-0.1-0.7-0.1-1-0.2c-0.4,0-0.8-0.1-1.4-0.1c-1.2,0-2.3,0.2-3.1,0.5c-0.8,0.3-1.6,0.7-2.3,1.1v17.7
		l6.5,0.5v1.9h-14.5L866.6,264.8"/>
	<path id="path3954" d="M887.4,253.5c0-2,0.4-3.8,1-5.4c0.7-1.6,1.6-3,2.7-4.1c1.1-1.1,2.4-2,3.8-2.5c1.5-0.6,3-0.9,4.5-0.9
		c1.9,0,3.6,0.3,5,1c1.4,0.7,2.6,1.6,3.5,2.8c0.9,1.2,1.6,2.6,2.1,4.2c0.5,1.6,0.7,3.3,0.7,5.2c0,2-0.3,3.9-1,5.5
		c-0.6,1.7-1.5,3.1-2.5,4.3c-1.1,1.2-2.3,2.1-3.7,2.8c-1.4,0.7-3,1-4.6,1c-2.1,0-3.9-0.4-5.3-1.1c-1.5-0.8-2.7-1.8-3.6-3
		c-0.9-1.3-1.6-2.7-2-4.4C887.6,257,887.4,255.3,887.4,253.5 M899.1,264.7c1.3,0,2.4-0.2,3.2-0.7c0.9-0.5,1.6-1.2,2.2-2.1
		c0.6-0.9,1-2.1,1.2-3.4c0.3-1.4,0.4-2.9,0.4-4.7c0-1.5-0.1-3-0.4-4.3c-0.3-1.3-0.7-2.5-1.2-3.5c-0.6-1-1.3-1.8-2.2-2.3
		c-0.9-0.6-1.9-0.9-3.1-0.9c-1.3,0-2.4,0.2-3.3,0.7c-0.9,0.5-1.6,1.1-2.2,2c-0.6,0.9-1,2-1.3,3.3c-0.3,1.3-0.4,2.7-0.4,4.4
		c0,1.5,0.1,2.9,0.4,4.2c0.3,1.4,0.7,2.6,1.3,3.6c0.6,1,1.3,1.9,2.2,2.5C896.9,264.4,897.9,264.7,899.1,264.7"/>
	<path id="path3956" d="M920.4,234.8c-0.4,0-0.7-0.1-1.1-0.2c-0.3-0.1-0.7-0.3-0.9-0.5c-0.3-0.2-0.5-0.5-0.6-0.9
		c-0.2-0.3-0.2-0.7-0.2-1.2c0-0.5,0.1-0.9,0.3-1.3c0.2-0.4,0.5-0.8,0.8-1c0.3-0.3,0.7-0.5,1.1-0.7c0.4-0.2,0.8-0.2,1.2-0.2
		c1,0,1.7,0.3,2.2,0.8c0.5,0.5,0.7,1.2,0.7,2c0,0.5-0.1,1-0.3,1.4c-0.2,0.4-0.5,0.8-0.8,1c-0.3,0.3-0.7,0.5-1.1,0.7
		C921.2,234.8,920.8,234.8,920.4,234.8 M919.2,245.7l-3.2-1.7v-1.4l6.4-1.8l1,0.5v25.8c0,1.8-0.2,3.4-0.6,4.7
		c-0.4,1.4-0.9,2.6-1.7,3.6c-0.7,1-1.6,1.7-2.6,2.2c-1,0.5-2.1,0.8-3.4,0.8c-0.2,0-0.4,0-0.6,0c-0.3,0-0.5,0-0.8-0.1
		c-0.2,0-0.5-0.1-0.7-0.1c-0.2,0-0.3-0.1-0.4-0.1v-3.1c0.1,0,0.3,0.1,0.5,0.1c0.2,0,0.5,0.1,0.7,0.1c0.3,0,0.5,0,0.7,0
		c0.2,0,0.4,0,0.5,0c0.7,0,1.3-0.1,1.8-0.4c0.5-0.3,0.9-0.7,1.2-1.4c0.3-0.7,0.5-1.5,0.7-2.6c0.1-1.1,0.2-2.4,0.2-4V245.7"/>
	<path id="path3958" d="M930.1,254.1c0-1.9,0.3-3.7,0.9-5.4c0.6-1.6,1.5-3,2.6-4.2c1.1-1.2,2.4-2.1,4-2.8c1.5-0.7,3.2-1.1,5.1-1.1
		c1.3,0,2.5,0.2,3.6,0.6c1.1,0.4,2,1,2.7,1.8c0.8,0.8,1.3,1.8,1.8,3c0.4,1.2,0.7,2.5,0.7,4c0,1,0,1.8-0.1,2.5
		c-0.1,0.7-0.1,1.3-0.2,1.9h-16.8c0,0.1,0,0.2,0,0.3c0,0.1,0,0.2,0,0.2c0.1,1.8,0.4,3.3,0.9,4.5c0.6,1.2,1.3,2.1,2.1,2.9
		c0.8,0.7,1.8,1.2,2.8,1.5c1,0.3,2,0.4,3,0.4c0.6,0,1.2,0,1.9-0.1c0.7-0.1,1.3-0.2,1.9-0.3c0.6-0.1,1.2-0.3,1.7-0.5
		c0.5-0.2,1-0.3,1.3-0.5l0.8,1.9c-0.4,0.4-1,0.7-1.7,1.1c-0.7,0.3-1.5,0.6-2.3,0.8c-0.8,0.2-1.7,0.4-2.6,0.5
		c-0.9,0.1-1.8,0.2-2.7,0.2c-1.8,0-3.5-0.3-4.9-0.9c-1.4-0.6-2.6-1.5-3.6-2.7c-1-1.1-1.7-2.5-2.2-4.2
		C930.3,257.9,930.1,256.1,930.1,254.1 M946.9,251.7c0-0.8,0.1-1.5,0-2.3c0-0.8-0.1-1.5-0.3-2.2c-0.2-0.7-0.4-1.4-0.8-1.9
		c-0.3-0.6-0.8-1.1-1.4-1.4c-0.4-0.3-0.8-0.4-1.3-0.6c-0.5-0.1-1.1-0.2-1.7-0.2c-0.8,0-1.7,0.2-2.5,0.5c-0.8,0.3-1.5,0.8-2.1,1.5
		c-0.6,0.7-1.1,1.6-1.6,2.7c-0.4,1.1-0.7,2.4-0.8,4L946.9,251.7"/>
	<path id="path3960" d="M956.1,254.5c0-2.1,0.3-4,0.9-5.7c0.6-1.7,1.5-3.1,2.6-4.3c1.1-1.2,2.4-2.1,3.9-2.8c1.5-0.7,3.1-1,4.9-1.1
		c0.6,0,1.3,0,1.9,0c0.7,0,1.3,0.1,1.9,0.2c0.6,0.1,1.1,0.2,1.6,0.4c0.5,0.2,0.9,0.3,1.2,0.5v5.4h-2.2l-1.2-2.9
		c-0.2-0.2-0.5-0.4-0.8-0.5c-0.3-0.1-0.6-0.2-1-0.3c-0.3-0.1-0.7-0.2-1-0.2c-0.3,0-0.6-0.1-0.9-0.1c-1,0-2,0.2-2.9,0.6
		c-0.9,0.4-1.7,1-2.5,1.7c-0.7,0.8-1.3,1.7-1.7,2.9c-0.4,1.1-0.6,2.5-0.7,4.1c0,2.1,0.2,3.8,0.7,5.3c0.5,1.5,1.1,2.7,2,3.6
		c0.8,0.9,1.7,1.6,2.7,2c1,0.4,2,0.6,2.9,0.6c0.6,0,1.2,0,1.8-0.1c0.6-0.1,1.2-0.2,1.8-0.3c0.6-0.1,1.1-0.3,1.6-0.4
		c0.5-0.2,0.9-0.4,1.2-0.5l0.8,2c-0.4,0.4-1,0.7-1.6,1c-0.7,0.3-1.4,0.6-2.2,0.8c-0.8,0.2-1.6,0.4-2.5,0.5c-0.8,0.1-1.7,0.2-2.6,0.2
		c-1.8,0-3.3-0.3-4.7-1c-1.3-0.6-2.5-1.5-3.4-2.7c-0.9-1.1-1.6-2.5-2.1-4C956.4,258,956.2,256.3,956.1,254.5"/>
	<path id="path3962" d="M983.5,260.8v-8.3c0-2.8,0-5.5,0-8.3H980v-1.7c0.7-0.2,1.2-0.3,1.7-0.4c0.5-0.1,0.8-0.2,1.1-0.3
		c0.3-0.1,0.6-0.3,0.7-0.5c0.2-0.2,0.4-0.5,0.5-0.9c0.1-0.3,0.2-0.6,0.4-1.1c0.2-0.5,0.3-1,0.5-1.5c0.2-0.5,0.3-1,0.4-1.5
		c0.1-0.5,0.2-0.8,0.2-1h2.2v6.1h7.6v2.9h-7.6v11.4c0,1.8,0,3.2,0.1,4.3c0,1.1,0.2,1.9,0.3,2.6c0.2,0.6,0.4,1,0.8,1.3
		c0.3,0.2,0.8,0.3,1.5,0.3c0.4,0,0.8,0,1.2-0.1c0.5-0.1,0.9-0.2,1.3-0.3c0.4-0.1,0.8-0.2,1.2-0.3c0.4-0.1,0.6-0.3,0.8-0.4l0.7,2
		c-0.3,0.4-0.8,0.7-1.4,1s-1.2,0.5-1.9,0.7c-0.7,0.2-1.3,0.3-2,0.4c-0.7,0.1-1.3,0.2-1.8,0.2c-1.6,0-2.9-0.5-3.8-1.5
		C983.9,264.7,983.5,263.1,983.5,260.8"/>
</g>
<g id="g3049" transform="matrix(4.2767203,0,0,4.2767203,147.39868,56.34844)">
	<path id="path3051" d="M91.7,42.4h-0.8c-0.3,3.2-0.8,7.1-6.3,7.1H82c-1.5,0-1.5-0.2-1.5-1.3V31.5c0-1.1,0-1.5,3-1.5h1V29
		c-1.1,0.1-4,0.1-5.3,0.1c-1.2,0-3.7,0-4.8-0.1V30h0.7c2.4,0,2.5,0.3,2.5,1.5V48c0,1.1-0.1,1.5-2.5,1.5h-0.7v1h16.4
		C90.9,50.5,91.7,42.4,91.7,42.4z"/>
	<path id="path3053" d="M91.2,29c-0.1-0.4-0.2-0.5-0.6-0.5c-0.4,0-0.5,0.1-0.6,0.5l-5.1,12.9c-0.2,0.5-0.6,1.5-2.6,1.5v0.8h4.9v-0.8
		c-1,0-1.6-0.4-1.6-1.1c0-0.2,0-0.2,0.1-0.4l1.1-2.7H93l1.3,3.2c0.1,0.1,0.1,0.3,0.1,0.4c0,0.6-1.2,0.6-1.8,0.6v0.8h6.2v-0.8h-0.4
		c-1.5,0-1.6-0.2-1.9-0.9C96.6,42.5,91.2,29,91.2,29z M89.9,31.2l2.8,7.1h-5.6C87.1,38.4,89.9,31.2,89.9,31.2z"/>
	<path id="path3055" d="M116.5,29.2H97.3l-0.6,7.1h0.8c0.4-5.1,0.9-6.1,5.7-6.1c0.6,0,1.4,0,1.7,0.1c0.7,0.1,0.7,0.5,0.7,1.2V48
		c0,1.1,0,1.5-3.3,1.5h-1.3v1c1.3-0.1,4.5-0.1,5.9-0.1s4.7,0,6,0.1v-1h-1.3c-3.3,0-3.3-0.4-3.3-1.5V31.4c0-0.6,0-1.1,0.6-1.2
		c0.3-0.1,1.2-0.1,1.8-0.1c4.7,0,5.2,1,5.7,6.1h0.8C117.1,36.3,116.5,29.2,116.5,29.2z"/>
	<path id="path3057" d="M133.4,49.5h-0.8c-0.8,4.8-1.5,7.1-6.9,7.1h-4.2c-1.5,0-1.5-0.2-1.5-1.3V47h2.8c3.1,0,3.4,1,3.4,3.7h0.8
		v-8.3h-0.8c0,2.7-0.3,3.7-3.4,3.7H120v-7.6c0-1,0.1-1.3,1.5-1.3h4c4.8,0,5.7,1.7,6.2,6.1h0.8l-0.9-7.1H114v0.9h0.7
		c2.4,0,2.5,0.3,2.5,1.5v16.5c0,1.1-0.1,1.5-2.5,1.5H114v1h18.1C132.1,57.6,133.4,49.5,133.4,49.5z"/>
	<path id="path3059" d="M143,38.3l4.3-6.3c0.7-1,1.7-2,4.6-2.1V29h-7.5V30c1.3,0,2,0.7,2,1.5c0,0.3-0.1,0.4-0.3,0.7l-3.6,5.3l-4-6.1
		c-0.1-0.1-0.2-0.3-0.2-0.5c0-0.4,0.7-0.9,2-0.9V29c-1.1,0.1-3.4,0.1-4.6,0.1c-1,0-2.9,0-4.1-0.1V30h0.6c1.7,0,2.3,0.2,2.9,1.1
		l5.8,8.8l-5.2,7.6c-0.4,0.6-1.4,2.1-4.6,2.1v1h7.5v-1c-1.5,0-2-0.9-2-1.5c0-0.3,0.1-0.4,0.3-0.8l4.5-6.6l5,7.5
		c0.1,0.1,0.2,0.3,0.2,0.3c0,0.4-0.7,0.9-2.1,0.9v1c1.1-0.1,3.4-0.1,4.6-0.1c1.3,0,2.8,0,4.1,0.1v-1h-0.6c-1.6,0-2.3-0.2-3-1.1
		C149.6,48.4,143,38.3,143,38.3z"/>
</g>
<g id="text3038-7-9" transform="matrix(0.99452608,0,0,0.99452608,-8.982512,-19.7611)">
	<path id="path3965" d="M376.8,263.7l5.6-0.7v-30.1l-8.2,0.5l-1.6,3.9l-2.1,0l0.6-6.9h27l0,7l-1.9,0.2l-1.2-4.2l-8.2-0.4V263
		l5.9,0.7v1.9h-15.9L376.8,263.7"/>
	<path id="path3967" d="M401.4,263.7l3.4-0.5v-30.7l-3.9-0.8v-2l7.2-1l1.1,0.5l0,10l-0.1,3.9c0.7-0.5,1.4-1,2.2-1.5
		c0.8-0.4,1.6-0.8,2.4-1.1c0.8-0.3,1.6-0.5,2.3-0.7c0.8-0.2,1.4-0.2,2-0.2c1.5,0,2.8,0.2,3.8,0.7c1,0.5,1.8,1.2,2.3,2.2
		c0.6,1,1,2.2,1.2,3.7c0.2,1.5,0.3,3.3,0.3,5.4v11.4l3.4,0.5v1.9h-11.6v-1.9l3.8-0.5v-9.4c0-1.8,0-3.3-0.1-4.6
		c-0.1-1.3-0.3-2.4-0.7-3.3c-0.3-0.9-0.9-1.6-1.6-2c-0.7-0.5-1.7-0.7-3-0.7c-0.5,0-1,0-1.6,0.1c-0.6,0.1-1.1,0.2-1.7,0.3
		c-0.6,0.1-1.1,0.3-1.7,0.6c-0.6,0.2-1.1,0.6-1.6,0.9v18.2l3.3,0.5v1.9h-11.1L401.4,263.7"/>
	<path id="path3969" d="M432.8,253c0-1.9,0.3-3.7,0.9-5.4c0.6-1.6,1.5-3,2.6-4.2c1.1-1.2,2.4-2.1,4-2.8c1.5-0.7,3.2-1.1,5.1-1.1
		c1.3,0,2.5,0.2,3.6,0.6c1.1,0.4,2,1,2.7,1.8c0.8,0.8,1.3,1.8,1.8,3c0.4,1.2,0.7,2.5,0.7,4c0,1,0,1.8-0.1,2.5
		c-0.1,0.7-0.1,1.3-0.2,1.9h-16.8v0.3c0,0.1,0,0.2,0,0.2c0.1,1.8,0.4,3.3,0.9,4.5c0.6,1.2,1.3,2.1,2.1,2.9c0.8,0.7,1.8,1.2,2.8,1.5
		c1,0.3,2,0.4,3,0.4c0.6,0,1.2,0,1.9-0.1c0.7-0.1,1.3-0.2,1.9-0.3c0.6-0.1,1.2-0.3,1.7-0.5c0.5-0.2,1-0.3,1.3-0.5l0.8,1.9
		c-0.4,0.4-1,0.7-1.7,1.1c-0.7,0.3-1.5,0.6-2.3,0.8c-0.8,0.2-1.7,0.4-2.6,0.5c-0.9,0.1-1.8,0.2-2.7,0.2c-1.8,0-3.5-0.3-4.9-0.9
		c-1.4-0.6-2.6-1.5-3.6-2.7c-1-1.1-1.7-2.5-2.2-4.2C433,256.8,432.8,255,432.8,253 M449.6,250.6c0-0.8,0.1-1.5,0-2.3
		c0-0.8-0.1-1.5-0.3-2.2c-0.2-0.7-0.4-1.4-0.8-1.9c-0.3-0.6-0.8-1.1-1.4-1.4c-0.4-0.3-0.8-0.4-1.3-0.6c-0.5-0.1-1.1-0.2-1.7-0.2
		c-0.8,0-1.7,0.2-2.5,0.5c-0.8,0.3-1.5,0.8-2.1,1.5c-0.6,0.7-1.1,1.6-1.6,2.7c-0.4,1.1-0.7,2.4-0.8,4L449.6,250.6"/>
</g>
<path id="rect3070" d="M340.5,268.1H443v4.1H340.5V268.1z"/>
<path id="rect3070-7" d="M823.1,268.1H1000v4.1H823.1V268.1z"/>
<g id="layer1" transform="matrix(1.3435916,0,0,1.3435916,-256.71526,-723.66624)">
	<g id="g3363" transform="matrix(0.58826838,0,0,-0.58826838,191.06432,638.60215)">
		<g id="g3365" transform="translate(-131.809,509.294)">
			<g id="g3367">
				<g id="g3369">
					<g id="g3371">
						<path id="path3373" d="M189.2-343.6c6-10.8,12.2-20.1,18.7-28.1l0.1-0.1c0,0,0.1-0.1,0.1-0.1c-3,0.4-6.1,0.7-9.3,0.7
							c-6.3-0.1-13.1-1.2-20.5-3.5c12.6-10.5,23.3-18.3,32.7-24.2c-0.2,0.1-0.5,0.2-0.7,0.2l0.7-0.4c-14.6,4.6-30.4,5.1-48.8-3.6
							c13.2-8.3,24.4-14.3,34.2-18.9c-0.3,0-0.6,0.1-0.9,0.2l0.7-0.4c-15.3,2.6-31.1,1.2-48.4-10.2c11.3-5,21-8.8,29.8-11.7h0.1
							l0.6-0.3c-14.6-0.6-29-5.1-43.1-18.5c12.3-3.1,22.9-5.1,32.2-6.5c-0.3-0.1-0.5-0.1-0.8-0.2c-0.4,0-0.7,0-1.1,0l0.4-0.2
							c-10.9-2.5-21.5-7.9-31.8-18.3c8.4-1.8,15.9-3.2,22.8-4.3c-8.5-4.1-16.6-10.5-23.9-20.2c9.7-0.7,18.2-1.1,25.9-1.1
							c-9.3-4.3-18.1-11.1-25.8-22c13.8-0.7,25.3-0.7,35.3-0.1c-0.2-0.1-0.4-0.2-0.6-0.2c-0.6-0.1-1.2-0.1-1.8-0.2l0.9-0.3
							c-10.3-4.5-19.9-11.9-28.1-24.3c17.1-0.3,30.7,0.6,42.1,2c-0.3-0.1-0.7-0.2-1-0.3c-0.4,0-0.9,0-1.3-0.1l0.6-0.2
							c-13.4-4-25.8-11.7-36.1-27.3c13.8-0.2,25.4,0.3,35.3,1.3c-0.2-0.1-0.4-0.3-0.6-0.4c-11.9-6.6-22.1-16.6-28.8-33.4
							c12.2,2.3,22.4,4.7,31.3,7.3c-0.1-0.1-0.3-0.2-0.5-0.3l0.6,0.1c-9.1-6.8-16.8-16.3-22-30.5c8.4,1.9,15.9,3.8,22.6,5.7
							c-6-7.3-10.7-16.4-13.3-28.3c9.1,3.4,17,6.6,24,9.8c-0.1-0.1-0.2-0.2-0.2-0.3c-0.1-0.1-0.3-0.2-0.5-0.3l0.2,0.1
							c-6.4-7.7-11.3-17.4-13.8-30.2c12.8,5.1,23.2,10,32,14.7c-0.2-0.2-0.6-0.5-0.8-0.7l0.2,0.1c-7.8-8.5-13.6-19.5-15.9-34.6
							c15.1,6.7,26.8,12.9,36.4,18.7c-0.1-0.1-0.2-0.2-0.3-0.3l0.6,0.3c-10.9-9.3-19.2-21.7-22.1-40.5c20.4,9,34.7,17.2,45.7,24.7
							c-4.8-9.6-7.3-20.8-6.1-34.9c19.7,15.1,32.2,27.3,41.5,38.1c0-0.2,0-0.3,0-0.5c-0.6-6.8-0.1-14.2,1.9-22.4
							c11.7,20.1,23.4,28.4,35.3,35.3c-14.9-9.6-12.2-17.5-12.2-26.4c17.7,18.6,42.3,38.4,49.8,50.8c-10.1-15.1-14.1-29.5-16.8-42.2
							c-51.6-27.3-83.1-34.4-118.3-45.3c13.7-5,28.3-9.9,22.3-16.8l-16.1-16.1c10.3,3.2,20.9,7.8,30,1.6
							c-0.9-8.5-11.6-12.8-20.7-17.7c16.1,5.8,19.5,4.4,23.8,3.1c2.1-10.1-5.2-15.6-10-22.3c40.5,30.8,93.3,55.1,130.5,65.3
							c52.3,17.6,119.9,36,138.2,80.7l18.3,73.7c21.5,23.3,41.3,47.4,50.7,76.8c59.9,11.6,108.4,7.4,158.9,6.1
							c-4.6,0.8-154.3,26.1-154.3,26.1c-43.8,59.9-109,19.2-130.5-40c-5.4-14.9-36.4-14.9-45.3,0.1
							C388.5-454.1,280.8-373.4,189.2-343.6L189.2-343.6L189.2-343.6z"/>
					</g>
					<g id="g3375">
						<path id="path3377" class="st0" d="M188.1-339.3c6-10.9,12.3-20.2,18.9-28.2c-3,0.4-6.1,0.7-9.3,0.7
							c-6.3-0.1-13.1-1.1-20.4-3.4c12.8-10.7,23.6-18.5,33.2-24.6c-14.7,4.7-30.6,5.4-49.3-3.5c13.6-8.5,25-14.7,35.1-19.3
							c-15.6,2.9-31.8,1.6-49.4-10.1c11.7-5.2,21.7-9.1,30.7-12.1c-14.7-0.5-29.2-5-43.4-18.5c12.3-3.1,22.9-5.1,32.2-6.4
							c-11.4-2.3-22.5-7.8-33.4-18.7c8.4-1.8,15.9-3.2,22.8-4.2c-8.5-4.1-16.5-10.5-23.9-20.2c9.7-0.7,18.2-1.1,25.9-1.1
							c-9.3-4.3-18-11.1-25.8-22c13.8-0.7,25.3-0.6,35.3,0c-10.9-4.5-21-12-29.6-25.1c17.1-0.3,30.7,0.6,42.1,2
							c-14.1-3.8-27.2-11.6-38-27.9c13.8-0.2,25.4,0.3,35.3,1.2c-12.1-6.6-22.6-16.7-29.4-33.8c12.5,2.4,23,4.9,32,7.6
							c-9.4-6.8-17.3-16.4-22.6-30.9c8.4,1.9,15.8,3.8,22.5,5.7c-6-7.3-10.7-16.4-13.3-28.4c9.1,3.4,17,6.6,24,9.8
							c-6.7-7.8-11.7-17.6-14.2-30.8c12.8,5.1,23.2,10,32,14.7c-8.1-8.6-14.1-19.7-16.4-35.1c15.6,6.9,27.6,13.3,37.3,19.3
							c-11.2-9.4-19.8-21.8-22.7-41.1c20.4,9,34.6,17.2,45.7,24.7c-4.8-9.6-7.3-20.9-6.1-34.9c19.7,15.1,32.2,27.4,41.5,38.1
							c-0.6-7-0.1-14.5,1.9-22.9c14.2,24.3,28.2,31.4,42.8,39.5c-23.2-11.7-19.7-20.5-19.7-30.7c17.7,18.6,42.3,38.4,49.9,50.7
							c-10.1-15.1-14.2-29.5-16.8-42.2c-51.6-27.3-83-34.4-118.2-45.3c13.7-5,28.3-9.9,22.3-16.9l-16.1-16.1
							c10.3,3.2,20.8,7.8,30,1.5c-0.9-8.5-11.6-12.7-20.7-17.7c16.1,5.8,19.6,4.5,23.8,3.1c2.1-10.1-5.2-15.6-10-22.3
							c40.5,30.8,93.3,55.1,130.5,65.3c52.3,17.6,119.8,35.9,138.2,80.6l18.4,73.7c21.5,23.3,41.3,47.4,50.7,76.8
							c59.9,11.6,108.4,7.4,158.9,6.1c-4.6,0.8-154.3,26.1-154.3,26.1c-43.8,59.9-109,19.2-130.5-40c-5.4-14.9-36.4-14.9-45.3,0
							C387.4-449.8,279.8-369.1,188.1-339.3L188.1-339.3L188.1-339.3z"/>
					</g>
					<g id="g3379">
						<path id="path3381" class="st1" d="M541.6-495.5l-0.4-0.6c-1.6-2.9-4.2-4.9-7.9-6.1c-3.7-1.2-8.4-1.6-13.9-1.3l-3.5,0.2
							l2.5-2.4c1.3-1.2,1.6-2.2,1.7-3.1c0-0.9-0.4-1.8-1.2-2.8c-1.7-2.1-5-4.4-8-6.7l-1-0.7l0.7-1c2.6-3.9,3.7-7,4-9.3
							c0.3-2.3-0.3-4-1.3-5.4c-2.1-2.9-6.9-4.8-11.1-7.2l-0.8-0.4l0.2-0.9c0.4-2.2-0.2-4-1.8-5.8c-1.6-1.8-4.2-3.5-7.8-5l-0.9-0.4
							l0.2-1c0.7-4.7,2.1-8.9,5.1-11.5c2.7-2.4,6.9-3,12.1-2c0.9-5.1,2.2-9.6,5.3-12.7c3.1-3.1,8-4,14.5-2.3
							c1.5-3.5,3.6-6.1,6.1-7.7c2.7-1.8,6.2-2.6,9.1-3.4l1.7,1.8c-2.9,0.9-7.1,2.3-9.4,3.8c-2.3,1.5-4.1,3.7-5.4,7.3l-0.4,1.3
							l-1.3-0.4c-6.7-2.1-10.4-1.1-13,1.4c-2.6,2.5-4,7.2-4.9,12.5l-0.2,1.4l-1.4-0.4c-5.5-1.4-8.8-0.7-11,1.3
							c-2.1,1.8-3.3,5.1-4,9.1c3.2,1.5,5.9,3.1,7.7,5.1c1.7,2,2.5,4.4,2.4,6.9c3.9,2.1,8.6,4,11.3,7.6c1.4,1.9,2.2,4.4,1.8,7.3
							c-0.3,2.7-1.6,5.7-3.9,9.4c2.8,2,5.7,4.1,7.6,6.5c1.1,1.3,1.8,2.8,1.8,4.5c0,0.9-0.9,1.8-1.4,2.7c4.8-0.1,9.2,0.3,12.8,1.4
							c3.8,1.2,6.8,3.5,8.7,6.5c5.7,0,11.5-1.3,17.5-2c6.1-0.8,12.3-1,18.2,1.6l-1.1,2.4c-5.2-2.3-10.8-2.2-16.7-1.4
							c-5.9,0.8-12.1,2.2-18.3,2.1L541.6-495.5L541.6-495.5z"/>
					</g>
					<g id="g3383">
						<path id="path3385" class="st2" d="M563.7-494.6c0-6.2-5-11.2-11.2-11.2c-6.2,0-11.2,5-11.2,11.2c0,6.2,5,11.2,11.2,11.2
							C558.7-483.4,563.7-488.4,563.7-494.6z"/>
					</g>
					<g id="g3387">
						<path id="path3389" class="st1" d="M597.1-484.1c-10-13.1-12.6-9.7-18.7-11.9l-1-0.4l0.2-1.1c2.4-13.1,10.1-17.3,16.2-22.1
							l0.3,1.1l1.6,0.3c-6.1,4.8-12.7,8.8-15.2,20c4.5,1.1,8.7-0.3,18.2,12L597.1-484.1L597.1-484.1z"/>
					</g>
					<g id="g3391">
						<path id="path3393" class="st1" d="M210.4-394.8c19-11.8,50.2-23.9,70.3-36.6c11-7,20.9-14,28.7-20.1
							c7.7-6,13.4-12.3,15.5-14.3c2.1-2,3.5-1.1,2.1,1.6c-1.4,2.6-8.3,8.8-16.1,14.9c-7.8,6.1-17.7,13.1-28.8,20.2
							C259.9-415,233.8-402.4,210.4-394.8L210.4-394.8z"/>
					</g>
					<g id="g3395">
						<path id="path3397" class="st1" d="M207-367.5c8-1.8,19.7-8.6,32.7-15.9c13.1-7.3,27.3-16.2,40.3-24.9
							c13-8.7,23.1-16.3,31.1-22.4c7.6-6.5,11.4-10.7,12.8-10.7c0.2,0,0.4,0,0.7,0c0.3,0,0.8,0.3,1.1,0.8c0.3,0.5,0.2,0.9,0.1,1.2
							c-0.1,0.3-0.1,0.4-0.2,0.6c-0.4,0.6-1.1,1.3-2,2.1c-1.9,1.7-5.1,4.3-9.1,7.4c-8.1,6.2-19.8,14.6-32.9,23.3
							c-13.1,8.7-27.4,17.7-40.5,25C236.3-379.3,213.4-367.2,207-367.5L207-367.5L207-367.5z"/>
					</g>
					<g id="g3399">
						<path id="path3401" class="st1" d="M196.1-417.6c24.4-9.9,59-21.6,82.1-36.2c12.4-7.9,23.2-15.8,31.3-22.2
							c4-3.2,7.4-6.1,9.9-8.4c2.5-2.3,3.9-4.4,4.7-5c1.7-1.2,3-0.4,2.2,1.5c-0.6,1.4-2.6,3.1-5.1,5.4c-2.6,2.4-6,5.2-10.1,8.5
							c-8.2,6.5-19.1,14.5-31.6,22.4C254.6-435.6,224.7-421.6,196.1-417.6L196.1-417.6z"/>
					</g>
					<g id="g3403">
						<path id="path3405" class="st1" d="M177.4-439.7c19,0,58.2-17.4,74.7-26.1c26.8-14.3,51.2-32.7,64.6-45.5
							c1.5-1.4,3.7-0.2,2,1.8c-12.5,14.5-38.3,31.6-65.3,46C226.4-449.1,198.4-439.7,177.4-439.7L177.4-439.7z"/>
					</g>
					<g id="g3407">
						<path id="path3409" class="st1" d="M166.4-464.7c28.5-4.2,62.7-15.7,87.7-28.2c13.9-7.1,26.3-14.6,35.8-21.3
							c9.5-6.7,16.5-14.3,18.3-16.2c1.7-2,3.8-2,2.2,1.4c-1.6,3.5-9.3,10.2-19,17s-22.1,14.4-36.1,21.5
							C227.2-476.3,195.3-465.1,166.4-464.7L166.4-464.7z"/>
					</g>
					<g id="g3411">
						<path id="path3413" class="st1" d="M175.8-485.9c-7.1,0.6-13.5-0.8-20-1.6c25.4,2.4,60.8-9.3,84.4-20.2
							c27.8-13.1,51-31,62-42.4c1.7-1.8,3,0.5,2,1.7c-10.3,13.2-34.9,30-63,43.1C220.3-495.4,197.1-487.8,175.8-485.9L175.8-485.9z"
							/>
					</g>
					<g id="g3415">
						<path id="path3417" class="st1" d="M157.8-508.8c25-1.8,58.4-7.8,81.8-18.6c23.5-11,41.4-25.3,50.4-33.4
							c1.4-1.2,3.8-0.4,1.9,1.9c-8.2,9.5-27.3,22.7-51.1,33.8C216.9-513.8,188-506.7,157.8-508.8L157.8-508.8z"/>
					</g>
					<g id="g3419">
						<path id="path3421" class="st1" d="M180.2-529.5c-5.3,0.2-7.7-0.8-12.8-1.4c16.9-0.7,43.8-5.3,58.7-10.3
							c19.3-6.7,35.1-16.8,44.2-24.6c1.7-1.5,3,0.5,1.9,1.8c-8.4,9.5-25.6,18.6-45.2,25.3C212.3-533.6,196-530.1,180.2-529.5
							L180.2-529.5z"/>
					</g>
					<g id="g3423">
						<path id="path3425" class="st1" d="M179.5-554.1c36.2-2.4,58.1-8.8,74.9-23.9c1.3-1.1,3.2,0.4,1.9,1.9
							C239-557.4,205.1-552.2,179.5-554.1L179.5-554.1z"/>
					</g>
					<g id="g3427">
						<path id="path3429" class="st1" d="M207.4-575.8c-11,0.9-20.2-1.5-30.2-4.8c29.3,4.7,41.4,2.4,63.6-8c2.5-1.2,2.4,1.6,1.3,2.3
							C230.3-579.3,218.3-576.7,207.4-575.8L207.4-575.8z"/>
					</g>
					<g id="g3431">
						<path id="path3433" class="st1" d="M206.3-596.2c-10.4-0.9-19.2-4.5-26.4-10.4c29,11.2,37,8.9,59.2,2.7c2.9-0.8,2,2,0.9,2.4
							C226.6-596.2,216.7-595.3,206.3-596.2L206.3-596.2z"/>
					</g>
					<g id="g3435">
						<path id="path3437" class="st1" d="M263.8-614.2c-15.5,1.7-32.9-0.2-48.2-3c-15.3-2.8-28.4-8.5-35.9-14.5
							c25.4,10.7,30.1,10.7,36.3,11.9c15.1,2.7,30,3.8,47.5,3C265.2-616.9,265.1-614.3,263.8-614.2L263.8-614.2z"/>
					</g>
					<g id="g3439">
						<path id="path3441" class="st1" d="M272.7-626.7c-16.8,0.6-34.1-3.5-49-7.8c-15-4.3-26.1-10.1-33.4-16.1
							c14.8,7.1,28.6,12,34.1,13.6c14.8,4.2,29.7,7.9,48.5,7.6C274.4-629.4,275.3-626.8,272.7-626.7L272.7-626.7z"/>
					</g>
					<g id="g3443">
						<path id="path3445" class="st1" d="M286.4-637c-15.8-2.3-32.3-7-46.8-11.9c-14.4-4.9-24.7-10.7-31.4-17.7
							c17.2,9.8,26.6,13.3,32.2,15.2c14.2,4.8,27.6,8.2,46.4,11.7C289.2-639.2,287.3-636.9,286.4-637L286.4-637z"/>
					</g>
					<g id="g3447">
						<path id="path3449" class="st1" d="M294.4-650.2c-31.7-5-52.2-18.7-65.2-32.2c20.2,15.2,34.3,23.4,65.8,29.6
							C297-652.4,296.4-649.8,294.4-650.2L294.4-650.2z"/>
					</g>
					<g id="g3451">
						<path id="path3453" class="st1" d="M309.9-661.7c-31.8-4.9-50.2-24.3-57.8-37c20.1,20.1,35.8,31.1,58.4,34.4
							C312.7-664,312.1-661.4,309.9-661.7L309.9-661.7z"/>
					</g>
					<g id="g3455">
						<path id="path3457" class="st1" d="M319.5-671.8c-5-0.6-11.7-4.1-18.1-8.2c-6.4-4.1-11.2-9-14.1-15.3
							c7.7,7.9,10.8,10.1,15.5,13.1c6.1,3.9,12.3,6.3,17.3,7.8C322.5-673.7,320.7-671.6,319.5-671.8L319.5-671.8z"/>
					</g>
					<g id="g3459">
						<path id="path3461" class="st2" d="M563.7-494.6c0-6.2-5-11.2-11.2-11.2c-6.2,0-11.2,5-11.2,11.2c0,6.2,5,11.2,11.2,11.2
							C558.7-483.4,563.7-488.4,563.7-494.6z"/>
					</g>
					<g id="g3463">
						<path id="path3465" class="st3" d="M563.7-494.6c0-6.2-5-11.2-11.2-11.2c-6.2,0-11.2,5-11.2,11.2c0,6.2,5,11.2,11.2,11.2
							C558.7-483.4,563.7-488.4,563.7-494.6z"/>
					</g>
				</g>
			</g>
		</g>
	</g>
</g>
</svg>
